<svg width="200" height="128" viewBox="0 0 200 128" fill="none" xmlns="http://www.w3.org/2000/svg">
<path d="M132.281 115.18C132.281 122.194 125.938 127.822 118.031 127.822C110.125 127.822 103.719 122.194 103.719 115.18C103.719 108.166 110.156 102.483 118.031 102.483C125.969 102.483 132.281 108.166 132.281 115.18ZM52.9375 102.483C45.0312 102.483 38.6875 108.194 38.6875 115.18C38.6875 122.167 45.0312 127.822 52.9375 127.822C60.8437 127.822 67.25 122.194 67.25 115.18C67.25 108.166 60.8437 102.483 52.9375 102.483ZM144.094 27.6275C49.6562 27.6275 25.5938 24.0788 0 0.125107C10.75 14.4585 16.6563 41.4063 116.594 40.1033C220.75 38.7171 157.219 63.9738 138.719 92.4742C197.062 46.2581 238.531 27.6275 144.094 27.6275Z" fill="#2ECC71"/>
</svg>
